<?xml version="1.0" encoding="UTF-8" standalone="no"?>
<svg
   xml:space="preserve"
   viewBox="0 0 760 329.99999"
   height="330"
   width="760"
   y="0px"
   x="0px"
   sodipodi:docname="MENA_according_to_UNAIDS.svg"
   inkscape:version="1.1 (c68e22c387, 2021-05-23)"
   id="svg2"
   version="1.1"
   xmlns:inkscape="http://www.inkscape.org/namespaces/inkscape"
   xmlns:sodipodi="http://sodipodi.sourceforge.net/DTD/sodipodi-0.dtd"
   xmlns="http://www.w3.org/2000/svg"
   xmlns:svg="http://www.w3.org/2000/svg"
   xmlns:rdf="http://www.w3.org/1999/02/22-rdf-syntax-ns#"
   xmlns:cc="http://creativecommons.org/ns#"
   xmlns:dc="http://purl.org/dc/elements/1.1/"><metadata
   id="metadata490"><rdf:RDF><cc:Work
       rdf:about=""><dc:format>image/svg+xml</dc:format><dc:type
         rdf:resource="http://purl.org/dc/dcmitype/StillImage" /></cc:Work></rdf:RDF></metadata><defs
   id="defs488">
	
	
</defs><sodipodi:namedview
   inkscape:current-layer="svg2"
   inkscape:window-maximized="0"
   inkscape:window-y="0"
   inkscape:window-x="237"
   inkscape:cy="331.04513"
   inkscape:cx="370.68246"
   inkscape:zoom="0.68117601"
   showgrid="false"
   id="namedview486"
   inkscape:window-height="729"
   inkscape:window-width="1176"
   inkscape:pageshadow="2"
   inkscape:pageopacity="0"
   guidetolerance="10"
   gridtolerance="10"
   objecttolerance="10"
   borderopacity="1"
   bordercolor="#666666"
   pagecolor="#ffffff"
   inkscape:pagecheckerboard="0"
   width="802.289px" />
<style
   id="style10"
   type="text/css">
	.st0{fill:#B9B9B9;stroke:#FFFFFF;stroke-width:0.75;stroke-miterlimit:1.2309;}
	.st1{fill-rule:evenodd;clip-rule:evenodd;fill:#B9B9B9;}
	.st2{fill:#B9B9B9;stroke:#FFFFFF;stroke-width:0.75;stroke-miterlimit:3.9745;}
	.st3{fill:#B9B9B9;}
	.st4{fill:#B9B9B9;stroke:#FFFFFF;stroke-width:0.75;stroke-miterlimit:1.2322;}
	.st5{fill:#B9B9B9;fill-opacity:0;}
	.st6{fill:#4F84D3;stroke:#FFFFFF;stroke-width:0.75;stroke-miterlimit:1.2322;}
	.st7{fill:#8BB9EF;stroke:#FFFFFF;stroke-width:0.75;stroke-miterlimit:1.2309;}
</style>





<path
   style="fill:#00ff00;stroke-width:1;stroke-miterlimit:1.23191;stroke-dasharray:none"
   d="m 269.80286,86.415753 c -1.238,-1.045 1.412,-2.276 2.098,-2.587 2.061,-0.939 3.173,-1.478 4.422,-3.465 1.004,-1.598 2.011,-2.377 1.619,-4.434 -0.338,-1.774 -1.195,-3.562 -1.01,-5.413 0.254,-2.538 3.394,-1.888 3.896,-3.708 0.54,-1.961 2.17,-2.972 3.842,-3.752 1.281,-0.598 5.442,-1.712 5.475,-3.45 0.017,-0.87 -0.852,-1.408 -0.76,-2.333 0.167,-1.692 0.234,-3.392 0.405,-5.084 1.662,1.135 3.892,1.708 5.677,2.785 1.874,1.13 4.001,1.514 6.181,1.28 2.205,-0.237 3.829,-1.608 6.097,-0.803 2.02,0.717 4.16,0.792 6.127,1.614 1.75,0.733 3.163,2.055 4.929,2.734 1.545,0.594 3.631,-0.028 5.009,0.907 1.623,1.101 1.927,2.99 2.239,4.757 0.4,2.262 1.305,4.065 3.101,5.584 3.245,2.744 7.254,2.101 11.157,2.795 3.919,0.699 9.497,2.445 12.635,4.939 2.509,1.995 4.83,5.363 8.417,5.046 4.145,-0.367 8.576,-3.952 9.504,-8.034 0.428,-1.885 -0.871,-3.351 -1.46,-5.05 -0.65,-1.872 -1.126,-4.025 -0.472,-5.963 1.2,-3.556 7.168,-7.966 10.951,-8.091 1.959,-0.064 3.103,-1.455 4.915,-1.591 1.848,-0.139 3.82,-0.171 5.624,0.262 2.11,0.506 3.951,1.507 5.952,2.276 2.373,0.912 1.744,1.228 1.861,3.266 0.092,1.65 2.809,2 4.021,2.088 2.352,0.174 3.874,1.219 6.047,1.837 2.158,0.614 4.422,-0.096 6.612,0.298 1.242,0.222 3.113,2.65 2.671,3.926 -0.465,1.347 -2.14,1.69 -2.373,3.205 -0.323,2.093 1.04,3.645 1.415,5.592 0.422,2.19 -1.018,4.131 -1.776,6.034 -0.806,2.02 1.304,4.419 1.655,6.51 0.595,3.563 1.243,6.932 1.47,10.585997 l 2.292,94.92 c -3.204,0 -6.409,0 -9.613,0 0.089,1.814 0.019,3.635 0.18,5.447 l -76.665,-42.568 -17.386,8.173 c -1.473,0.395 -3.278,-1.963 -4.136,-2.802 -3.588,-3.509 -7.484,-4.226 -12.262,-5.292 -1.707,-0.381 -3.939,-0.575 -5.46,-1.5 -1.204,-0.734 -1.774,-2.803 -2.273,-4.001 -1.464,-3.519 -3.246,-4.477 -6.758,-5.773 -1.166,-0.43 -2.281,-1.401 -3.557,-1.369 -1.249,0.032 -2.597,1.392 -3.77,0.149 -0.952,-1.009 -2.597,-3.601 -2.622,-4.997 -0.051,-2.92 -0.339,-3.987 -1.977,-6.473 -1.261,-1.917 -5.453,-5.321 -3.649,-7.872 2.082,-2.943 5.267,-1.817 3.902,-6.644 -0.682,-2.415 -1.173,-4.269 -0.33,-6.719 0.722,-2.099 1.15,-3.832 0.36,-6.002 -0.83,-2.282 -0.185,-4.567 0.023,-6.886 0.247,-2.748997 -0.172,-5.520997 -1.103,-8.117997 -0.801,-2.225 -1.961,-4.322 -3.369,-6.236"
   class="st6"
   id="ly" />

<g
   transform="matrix(4.1453484,0,0,4.0668378,-4833.9857,-1855.1624)"
   id="ye"
   style="fill:#00ff00">
	<path
   style="fill:#00ff00;stroke-width:0.243552;stroke-miterlimit:3.76825;stroke-dasharray:none"
   d="m 1309.609,520.679 c 0.03,-0.103 0.037,-0.207 0.021,-0.312 -0.342,0.054 -0.203,0.191 -0.021,0.312"
   class="st6"
   id="path2190" />
	<path
   style="fill:#00ff00;stroke-width:0.243552;stroke-miterlimit:3.76825;stroke-dasharray:none"
   d="m 1332.266,525.411 c -0.013,-0.241 -0.311,-0.156 -0.446,-0.134 0.149,0.045 0.297,0.09 0.446,0.134"
   class="st6"
   id="path2192" />
	<path
   style="fill:#00ff00;stroke-width:0.243552;stroke-miterlimit:3.76825;stroke-dasharray:none"
   d="m 1335.568,524.965 c 0.522,-0.12 1.429,-0.063 1.696,-0.647 -0.314,-0.188 -0.729,-0.477 -1.116,-0.389 -0.183,0.042 -0.341,0.161 -0.538,0.143 -0.208,-0.02 -0.386,-0.201 -0.602,-0.162 -0.236,0.042 -0.445,0.501 -0.25,0.673 0.204,0.179 0.539,0.343 0.81,0.382"
   class="st6"
   id="path2194" />
	<path
   style="fill:#00ff00;stroke-width:0.243552;stroke-miterlimit:3.76825;stroke-dasharray:none"
   d="m 1333.627,513.235 c -0.752,-0.028 -0.327,-1.569 -1.073,-1.657 0.335,-0.531 -0.906,-2.181 -1.12,-2.762 l -0.87,-2.012 c -2.209,0.434 -4.428,0.909 -6.602,1.203 -1.814,0.56 -2.729,1.461 -3.139,2.443 -0.379,0.566 -0.581,1.994 -1.488,1.939 -0.618,-0.037 -0.55,-0.963 -1.144,-0.893 -0.749,0.088 -1.361,0.074 -2.12,-0.032 -0.431,-0.06 -0.872,-0.367 -1.294,-0.367 -0.467,0 -0.933,0.045 -1.397,0.089 -0.57,0.054 -1.052,0.31 -1.643,0.277 -0.325,-0.018 -0.446,-0.379 -0.778,-0.421 -0.318,-0.04 -0.562,0.175 -0.695,0.443 -0.145,0.293 -0.192,0.648 -0.137,0.97 0.035,0.208 0.327,0.415 0.169,0.629 -0.15,0.202 -0.269,0.41 -0.423,0.621 -0.083,0.115 -0.186,0.206 -0.311,0.273 -0.298,0.149 -0.146,0.262 -0.085,0.588 0.097,0.517 -0.098,0.757 -0.19,1.228 -0.085,0.436 0.281,0.815 0.239,1.249 -0.083,-0.074 -0.527,-0.086 -0.453,0.087 -0.016,-0.036 0.449,0.225 0.448,0.224 0.249,0.265 0.342,0.54 0.426,0.887 0.167,0.681 0.18,1.44 0.394,2.102 0.088,0.272 0.306,0.475 0.41,0.74 0.124,0.32 0.01,0.666 0,0.993 -0.013,0.647 0.77,1.192 0.558,1.849 0.286,0.022 0.478,-0.138 0.767,-0.023 0.307,0.123 0.519,0.224 0.858,0.157 0.699,-0.139 1.01,-0.627 1.739,-0.245 -0.038,-0.198 0.174,-0.4 0.245,-0.111 0.121,-0.133 0.191,-0.287 0.288,-0.434 0.154,-0.233 0.403,-0.228 0.609,-0.384 0.459,-0.347 0.511,-0.696 1.143,-0.841 0.589,-0.135 1.214,-0.161 1.815,-0.106 0.354,0.032 0.948,-0.374 1.302,-0.474 0.529,-0.15 0.791,-0.608 1.257,-0.866 0.143,-0.079 0.344,-0.258 0.499,-0.304 0.171,0.006 0.334,0.046 0.489,0.121 0.175,0.008 0.346,-0.013 0.513,-0.063 1.125,-0.181 1.378,-1.345 2.389,-1.841 0.47,-0.231 0.885,-0.289 1.386,-0.377 0.619,-0.108 1.131,-0.523 1.74,-0.668 0.423,-0.101 0.852,-0.181 1.262,-0.329 0.41,-0.148 0.556,-0.475 0.903,-0.652 0.288,-0.147 0.908,-0.129 0.997,-0.519 0.103,-0.453 -0.212,-0.864 -0.047,-1.326 0.329,-0.931 1.469,-0.894 2.164,-1.405"
   class="st6"
   id="path2592" />
</g>

<path
   style="fill:#00ff00;stroke-width:1;stroke-miterlimit:1.23191;stroke-dasharray:none"
   d="m 98.148865,116.37475 0.655,-13.708 c -0.605,-3.685997 5.154995,-4.901997 7.228995,-6.755997 1.028,-0.919 2.71,-2.797 4.293,-2.7 1.377,0.084 1.696,-1.951 3.506,-2.296 2.947,-0.561 4.459,2.243 6.231,-1.589 0.55,-1.186 2.386,-0.69 3.441,-0.826 1.9,-0.247 3.813,-0.501 5.606,-1.151 3.601,-1.306 3.75,-5.101 6.82,-6.692 1.266,-0.657 2.923,-0.73 4.258,-1.214 1.644,-0.598 2.723,-2.406 4.419,-2.74 0.621,-0.122 3.961,-0.389 2.595,-2.116 -0.883,-1.116 -2.287,-1.523 -0.474,-3.148 -2.592,-0.699 -0.252,-3.364 1.65,-3.208 2.516,0.207 4.838,-0.673 5.73,-2.985 1.709,-4.427 13.357,-0.506 16.68,-1.343 -3.809,-1.687 2.782,-3.747 0.712,-5.312 -0.978,-0.739 -2.072,-1.392 -2.866,-2.338 -0.92,-1.093 -0.441,-2.66 -1.344,-4 -0.945,-1.4 -0.421,-2.551 -0.149,-3.945 0.256,-1.306 -0.772,-1.322 -0.628,-2.589 0.135,-1.184 0.116,-2.61 0.132,-3.789 0.022,-1.582 -1.053,-2.853 0.545,-4.081 -1.662,-0.666 -0.99,-1.575 -1.23,-2.794 -0.32,-1.624 -3.191,-2.151 -3.819,-3.822 3.078,-0.008 4.394,-0.74 7.009,-2.052 1.139,-0.571 1.856,-0.572 2.543,-1.75 0.608,-1.043 1.067,-1.918 2.196,-2.51 0.637,-0.335 1.873,-1.309 2.546,-0.787 0.874,0.677 1.977,-0.499 2.558,-1.021 1.509,-1.353 3.581,2.053 5.123,-1.059 2.068,-4.17 9.195,-5.974 13.369,-6.446 2.971,-0.335 5.974,-1.137 8.968,-0.939 2.234,0.148 3.772,-2.647 5.71,-1.571 0.843,0.468 0.652,0.206 0.973,-0.315 0.071,-0.113 3.42,-0.066 3.919,-0.26 2.894,-1.126 5.817,-0.701 8.86,-0.784 2.536,-0.069 3.138,0.446 5.069,1.875 2.466,1.825 3.322,-0.874 5.461,-1.131 0.688,-0.082 4.955,-0.264 4.721,-1.503 -0.422,-2.2320003 2.685,-0.857 3.424,-0.371 1.544,1.015 3.866,1.528 5.448,0.287 0.869,-0.682 0.302,-1.5700003 1.956,-1.1650003 1.175,0.2870003 2.096,1.1350003 3.374,1.0680003 -1.082,1.754 1.601,1.14 2.45,0.923 1.693,-0.432 3.522,-0.028 5.146,-0.561 0.122,2.262 -2.801,3.37 -4.074,4.812 3.469,0.734 0.141,5.519 0.842,7.712 1.217,3.809 0.709,6.688 -0.109,10.445 -0.673,3.092 -4.181,5.5 -6.524,7.529 -1.366,1.183 -0.702,4.272 0.096,5.582 1.29,2.12 0.703,4.429 3.362,5.421 3.631,1.352 2.565,5.864 5.492,8.013 1.357,0.997 2.959,1.719 4.108,2.971 1.553,1.693 1.78,4.469 2.141,6.617 0.745,4.438 2.892,9.37 2.892,13.845 0,1.208 -2.588,0.746 -0.919,2.93 1.616,2.117 2.953,4.606 3.487,7.21 1.838,8.964997 -0.863,8.909997 0.514,13.506997 0.657,2.193 0.692,3.796 -0.177,5.931 -0.981,2.41 -0.086,4.662 0.447,7.066 0.805,3.635 -0.843,3.693 -3.477,5.645 -3.001,2.227 1.988,6.551 3.29,8.516 2.434,3.672 0.97,8.031 4.208,11.459 1.243,1.316 2.672,-0.262 3.998,-0.164 1.678,0.125 3.5,1.367 5.075,1.928 3.596,1.281 4.804,4.242 6.131,7.593 0.63,1.587 1.265,1.779 -0.488,2.755 -18.241,11.415 -36.643,22.835 -52.188,37.682 -0.894,1.277 -3.786,4.469 -6.033,5.687 -1.705,0.924 -4.213,1.009 -6.092,1.391 -2.554,0.518 -5.114,1.01 -7.665,1.541 -1.28,0.266 -12.498,4.047 -12.016,0.153 0.17,-1.373 1.17,-1.905 1.032,-3.426 -0.053,-0.584 0.126,-3.65 -0.494,-3.954 -1.885,-0.925 -4.24,-1.349 -6.321,-1.741 -1.026,-0.194 -2.403,-2.753 -3.187,-2.565 -4.495,1.082 -5.202,-3.312 -6.01,-3.969 -0.955,-0.777 -2.601,-0.847 -3.475,-1.499 -0.983,-0.733 -0.137,-2.552 -0.728,-3.536 -0.743,-1.237 -2.033,-2.314 -3.242,-3.016 -2.072,-1.203 -4.012,-2.631 -5.911,-4.078 -4.717,-3.592 -9.351,-7.292 -14.046,-10.912 -18.106,-13.966 -36.188,-27.879 -55.132,-40.747 -4.519,-3.078 -9.062,-6.11 -13.621995,-9.12"
   class="st6"
   id="dz" />



<path
   style="fill:#00ff00;fill-opacity:1;stroke-width:1;stroke-miterlimit:1.23191;stroke-dasharray:none"
   d="m 511.41386,93.769753 c -0.177,-3.044 1.072,-5.943 1.101,-8.969 0.035,-3.479 1.617,-6.059 2.046,-9.37 0.18,-1.379 -0.226,-2.787 -0.116,-4.187 0.105,-1.324 0.555,-2.626 0.605,-3.916 0.103,-2.703 -0.275,-5.95 -0.376,-8.679 -0.085,-2.316 2.861,-1.604 4.207,-0.691 2.217,1.503 4.221,3.78 7.202,3.205 3.001,-0.58 5.763,-3.349 8.244,-4.971 3.172,-2.073 6.339,-4.365 9.667,-6.18 1.027,3.228 2.374,6.343 3.509,9.534 -1.144,0.119 -0.397,1.65 0.339,1.836 1.167,0.294 2.639,0.114 0.751,2.057 -5.923,3.552 -11.855,5.435 -18.975,7.177 l 10.615,10.928 c -0.955,0.46 -3.48,0.404 -4.16,1.244 -0.781,0.966 0.104,2.916 -0.732,3.882 -1.402,1.62 -4.942,0.241 -6.759,1.943 -2.073,1.942 -2.751,5.592 -5.712,6.736 -2.677,1.032 -8.74,-0.889 -11.456,-1.579"
   class="st6"
   id="jo" />
<g
   transform="matrix(4.1453484,0,0,4.0668378,-4833.9857,-1855.1624)"
   id="ae"
   style="fill:#00ff00">
	<path
   style="fill:#00ff00;stroke-width:0.243552;stroke-miterlimit:3.76825;stroke-dasharray:none"
   d="m 1333.739,493.266 c 0.155,0.01 0.274,-0.049 0.357,-0.179 -0.202,-0.167 -0.458,-0.128 -0.58,0.112 0.074,0.023 0.148,0.045 0.223,0.067"
   class="st6"
   id="path2704" />
	<path
   style="fill:#00ff00;stroke-width:0.243552;stroke-miterlimit:3.76825;stroke-dasharray:none"
   d="m 1328.583,492.865 c 0.152,-0.1 0.211,-0.041 0.176,0.179 0.073,-0.069 0.147,-0.136 0.223,-0.201 0.145,0.211 0.016,0.517 0.18,0.714 0.158,0.191 0.524,0.147 0.738,0.134 0.278,-0.016 0.513,-0.06 0.727,-0.253 0.097,-0.087 0.21,-0.343 0.342,-0.372 0.144,-0.032 0.501,0.184 0.678,0.188 0.289,0.007 0.577,0.04 0.866,0.03 0.785,-0.028 1.327,0.334 2.096,-0.128 -0.07,-0.108 -0.144,-0.212 -0.223,-0.313 0.242,-0.091 0.209,0.2 0.4,0.179 0.278,-0.031 0.515,-0.367 0.628,-0.589 0.309,-0.607 0.348,-0.953 0.889,-1.404 0.526,-0.439 0.741,-1.231 1.238,-1.642 0.551,-0.454 0.881,-0.575 1.04,-1.321 0.401,0.02 0.228,0.601 0.231,0.846 0.01,0.463 0.509,0.229 0.569,0.743 0.06,0.516 0.413,1.191 0.01,1.591 -0.867,0.853 -0.588,0.256 -0.723,-0.11 -0.132,-0.357 -0.405,0.297 -0.363,0.517 0.031,0.167 -0.045,0.169 -0.02,0.348 0.028,0.192 0.152,0.476 0.154,0.701 0.01,0.625 0.633,0.343 0.381,0.76 -0.2,0.332 -0.855,0.04 -1.108,0.342 0.583,0.325 -0.283,1.849 -0.395,2.786 0.04,0.613 -0.273,0.753 -0.807,0.628 -0.657,-0.154 -1.337,-0.216 -2.004,-0.315 -0.7,-0.104 -1.399,-0.206 -2.101,-0.294 -0.516,-0.065 -1.134,0.038 -1.479,-0.421 -0.351,-0.466 -0.686,-0.938 -1.054,-1.392 -0.258,-0.317 -0.522,-0.629 -0.781,-0.944 -0.262,-0.32 -0.304,-0.649 -0.505,-0.987"
   class="st6"
   id="path2784" />
</g>











<g
   transform="matrix(4.1453484,0,0,4.0668378,-4833.9857,-1855.1624)"
   id="mr"
   style="fill:#00ff00;fill-opacity:1">
	<path
   style="fill:#00ff00;fill-opacity:1;stroke-width:0.243552;stroke-miterlimit:3.76825;stroke-dasharray:none"
   d="m 1171.048,505.41 c 0.157,-0.199 0.189,-0.449 0.202,-0.692 -0.18,0.172 -0.334,0.441 -0.202,0.692"
   class="st6"
   id="path3878" />
	<path
   style="fill:#00ff00;fill-opacity:1;stroke-width:0.243552;stroke-miterlimit:1.2309;stroke-dasharray:none"
   d="m 1169.734,502.285 c -0.063,-0.427 -0.027,-0.722 0.144,-1.133 0.048,-0.115 0.206,-0.392 0.507,-0.408 l 8.645,-0.01 c 0.44,-0.232 0.138,-2.142 0.108,-2.878 -0.054,-0.739 -0.128,-1.221 0.464,-1.781 0.496,-0.47 0.48,-0.35 2.056,-0.995 l 0.346,-6.769 7.714,-0.09 0.104,-3.432 c 2.937,1.976 5.819,4.011 8.651,6.133 -1.362,0 -2.735,0 -4.097,0 l 1.682,22.605 c 0.138,0.37 0.519,0.529 0.553,0.616 0.225,0.575 -0.071,0.749 -0.092,1.192 -0.025,0.519 -0.076,0.987 -0.227,1.042 l -4.926,0.006 c -2.798,0.097 -3.996,0.48 -4.244,-0.347 -0.119,0.749 -1.229,0.872 -1.776,0.654 -0.864,-0.343 -1.416,-0.199 -1.77,0.774 -0.201,-0.332 -0.494,-0.615 -0.794,-0.905 -0.355,-0.343 -0.698,-0.527 -0.887,-0.422 -0.71,0.393 0.281,2.372 -1.462,2.247 0.01,0.032 -0.47,-0.339 -0.597,-0.581 -0.157,-0.3 -0.338,-0.204 -0.639,-0.461 -0.326,-0.278 -0.303,-0.732 -0.57,-0.91 -0.716,-0.476 -0.432,-0.482 -0.499,-0.804 -0.082,-0.397 -0.486,-0.903 -0.688,-0.906 -1.053,-0.015 -1.129,-0.87 -1.811,-1.199 -0.344,-0.166 -0.645,-0.254 -1.109,-0.269 -0.723,-0.024 -0.972,0.683 -2.632,0.559 -0.35,-0.026 -0.303,-0.26 -0.601,-0.175 -0.289,0.106 -0.63,1.037 -0.745,1.281 0,-1.613 1.062,-2.928 1.215,-4.509 0.092,-0.952 -0.039,-1.757 -0.159,-2.689 -0.043,-0.336 -0.032,-0.705 -0.246,-0.99 -0.186,-0.249 -0.511,-0.425 -0.546,-0.764 0.249,0.078 0.522,-0.107 0.493,-0.379 -0.168,0.045 -0.302,0.171 -0.36,0.335 0.061,-0.324 0.322,-0.551 0.464,-0.835 0.092,-0.184 -0.041,-0.478 0.066,-0.601 0.485,-0.556 -0.258,-1.541 -0.441,-2.091 -0.076,0.133 -0.127,0.274 -0.155,0.424 -0.492,-0.373 -0.375,-1.143 -0.871,-1.518 -0.08,0.331 -0.199,0.65 -0.268,0.983"
   class="st7"
   id="path3882" />
</g>
<path
   style="fill:#00ff00;fill-opacity:1;stroke-width:1;stroke-miterlimit:1.23191;stroke-dasharray:none"
   d="m 390.93586,274.42875 c 0.65,-1.542 0.906,-2.836 2.357,-3.841 1.359,-0.941 2.461,-1.629 1.577,-3.263 -2.322,-4.292 -0.231,-5.155 3.006,-7.695 -0.873,-0.82 -2.326,-4.281 -0.905,-5.02 2.258,-1.176 2.536,-3.295 4.095,-5.242 1.945,-2.431 -1.333,-4.718 1.779,-6.229 1.334,-0.648 2.588,0.102 3.898,-0.571 1.587,-0.813 3.245,-0.217 4.835,0.267 l -0.925,-46.935 c 3.204,0 6.409,0 9.613,0 -0.121,-7.264 -0.387,-14.642 -0.636,-21.902 12.411,0 24.998,0.114 37.411,0.114 6.091,0 12.183,0 18.275,0 2.385,0 4.217,0.404 5.627,-1.813 1.425,-2.242 1.932,0.848 0.964,1.722 2.926,0.494 5.922,0.424 8.877,0.304 2.262,-0.092 5.892,-0.937 7.963,0.17 2.389,1.277 7.319,5.054 8.362,0.105 0.477,-2.263 1.073,-2.736 3.369,-3.123 2.317,-0.39 2.953,-1.579 3.703,-3.665 0.388,-1.083 0.968,-3.438 2.783,-2.505 1.384,0.711 3.676,-2.681 4.542,-3.541 0.656,2.798 2.597,3.761 5,4.993 2.15,1.102 3.466,3.773 5.524,5.183 2.727,1.87 1.46,2.987 2.342,5.892 0.73,2.404 3.762,4.036 3.883,6.627 -0.443,-1.972 -2.252,-1.068 -1.357,0.932 0.646,1.445 1.193,3.263 0.977,4.857 -0.486,3.6 0.636,6.901 0.829,10.562 0.135,2.571 1.064,8.505 4.187,9.025 1.804,0.301 5.178,5.823 6.379,4.764 0.085,1.553 3.019,1.365 3.234,3.064 -0.346,0.37 -1.822,2.871 -2.405,3.8 -0.767,1.22 -3.938,2.336 -5.331,2.854 -2.522,0.937 -2.188,1.176 -2.839,3.421 -0.334,1.155 -2.752,0.202 -3.622,0.706 -1.199,0.695 -1.006,3.323 -1.247,4.603 -0.237,1.257 0.457,2.255 0.172,3.531 -0.261,1.171 -0.856,2.402 -1.278,3.524 -1.085,2.886 -1.474,6.066 -2.748,8.406 -0.909,1.671 -0.137,4.676 -0.013,7.136 0.115,2.292 0.651,5.902 -0.06,9.176 -0.491,2.265 -1.908,4.011 -1.967,6.391 -0.022,0.844 0.2,4.439 -1.022,4.606 -1.838,0.251 -3.376,-0.6 -4.565,1.25 -1.164,1.814 -1.906,5.808 -3.753,7 -1.92,1.24 -0.592,4.79 -2.356,6.833 -0.723,0.838 1.527,0.795 0,3.912 -0.605,1.235 -0.969,1.917 -1.75,2.76 0.039,-1.533 -1.856,-2.683 -2.966,-1.308 -1.461,1.813 -1.249,3.317 -1.167,5.532 0.073,1.971 -0.82,3.287 -1.427,5.115 -0.749,2.253 -0.734,2.617 -0.549,4.956 0,0 -0.776,-0.164 -1.17,-0.19 -0.485,-0.032 -1.099,0.372 -1.458,0.044 -0.175,-0.159 -0.055,-0.471 -0.044,-0.707 0.017,-0.387 0.045,-0.785 0.177,-1.149 0.146,-0.404 0.528,-0.697 0.663,-1.105 0.14,-0.422 0.119,-0.882 0.133,-1.326 0.023,-0.752 0.33,-1.629 -0.088,-2.254 -0.216,-0.323 -0.736,-0.271 -1.061,-0.486 -0.582,-0.386 -1.071,-0.903 -1.547,-1.414 -0.907,-0.976 -1.341,-2.438 -2.475,-3.138 -0.435,-0.269 -1.12,0.03 -1.503,-0.309 -0.348,-0.309 -0.355,-0.868 -0.442,-1.326 -0.156,-0.826 -0.024,-1.685 -0.133,-2.519 -0.214,-1.642 -0.846,-3.215 -1.016,-4.861 -0.038,-0.366 -0.064,-0.742 0,-1.105 0.292,-1.666 1.432,-3.107 1.724,-4.773 0.03,-0.174 0,-0.53 0,-0.53 h -4.773 l -1.061,0.044 0.619,2.828 -6.32,-0.221 c 0,0 0.65,0.617 0.972,0.928 0.518,0.499 1.3,0.828 1.547,1.503 0.26,0.709 -0.174,1.5 -0.221,2.254 -0.068,1.088 -0.484,2.254 -0.088,3.27 0.246,0.631 1.433,0.782 1.414,1.458 -0.036,1.261 -1.706,1.909 -2.784,2.563 -0.482,0.292 -1.11,0.28 -1.591,0.575 -0.258,0.158 -0.465,0.39 -0.663,0.619 -1.607,1.858 -2.706,4.104 -4.198,6.055 -0.667,0.872 -1.147,2.014 -2.121,2.519 -0.617,0.32 -1.382,0.181 -2.077,0.177 -0.918,-0.005 -1.883,0.063 -2.74,-0.265 -1.111,-0.426 -1.858,-1.499 -2.873,-2.121 -0.393,-0.241 -0.829,-0.405 -1.237,-0.619 -1.443,-0.755 -2.659,-2.291 -4.287,-2.342 -1.772,-0.055 -4.012,0.674 -4.817,2.254 -0.388,0.762 0.445,1.665 0.486,2.519 0.015,0.31 0.144,0.722 -0.088,0.928 -1.149,1.015 -3.175,-0.706 -4.596,-0.133 -0.937,0.378 -1.411,1.447 -2.121,2.166 -0.337,0.341 -0.574,0.832 -1.016,1.016 -1.998,0.836 -4.471,0.81 -6.497,0.044 -0.351,-0.133 -0.596,-0.465 -0.84,-0.751 -0.443,-0.52 -0.5,-1.408 -1.105,-1.724 -0.993,-0.518 -2.239,0.111 -3.359,0.133 -1.753,0.035 -3.559,-0.427 -5.259,0 -0.908,0.228 -1.549,1.191 -2.475,1.326 -1.309,0.191 -2.877,0.057 -3.889,-0.796 -0.835,-0.703 -0.698,-2.077 -1.193,-3.049 -0.595,-1.169 -1.658,-2.087 -2.121,-3.315 -0.274,-0.725 0.261,-1.826 -0.354,-2.298 -0.752,-0.577 -1.883,0.229 -2.828,0.309 -1.471,0.124 -3.017,-0.194 -4.419,0.265 -0.75,0.245 -1.673,0.559 -1.989,1.282 -0.24,0.548 0.417,1.179 0.309,1.768 -0.068,0.37 -0.323,0.692 -0.575,0.972 -0.823,0.916 -2.532,1.055 -2.961,2.21 -0.331,0.891 0.933,1.887 0.619,2.784 -0.257,0.732 -1.463,0.766 -1.812,1.458 -0.644,1.277 0.57,3.067 -0.177,4.287 -0.627,1.024 -2.319,0.89 -3.138,1.768 -0.234,0.25 -0.442,0.928 -0.442,0.928 l -10.828,1.503 -20.064,-37.653 z"
   class="st7"
   id="sd" />
<path
   style="fill:#00ff00;stroke-width:1;stroke-miterlimit:1.23191;stroke-dasharray:none"
   d="m 543.99386,50.011753 c 5.607,-2.698 10.532,-5.331 15.52,-8.692 1.586,-1.068 3.296,-2.391 4.207,-3.755 1.75,-2.621 0.355,-6.085 0.704,-7.066 0.037,-4.074 1.157,-4.578 0.919,-6.536 -0.266,-2.188 -3.44,-6.03 -0.99,-7.903 1.402,-1.072 3.142,-1.027 4.589,-2.211 1.215,-0.995 4.483,-3.599 3.513,-4.6500003 -0.443,-0.481 0.445,0.045 1.11,-0.153 1.098,-0.325 1.456,-1.338 1.933,-2.196 0.469,-0.843 5.357,-0.063 6.429,0.34 0.848,0.32 1.704,0.622 2.597,0.802 1.469,0.298 1.909,-0.635 3.186,-0.867 3.221,-0.586 1.022,3.5550003 2.849,3.3930003 1.331,-0.118 1.859,-2.0950003 3.324,-2.0410003 1.86,0.068 1.794,3.1680003 2.61,4.2410003 0.387,0.509 0.892,0.42 1.214,1.058 0.393,0.779 -0.129,1.888 0.54,2.529 1.409,1.351 4.508,2.683 3.242,5.017 2.091,-0.459 2.95,1.383 3.883,1.729 1.783,0.662 1.81,-0.725 5.654,0.272 -0.335,1.417 -2.013,1.089 -2.616,2.184 -1.02,1.851 1.863,3.227 2.029,4.909 0.217,2.22 -2.549,-0.221 -2.469,2.03 0.035,1.014 -1.083,0.843 -1.369,1.798 -0.323,1.079 0.22,1.883 0.409,2.878 -0.699,-0.004 -1.347,-0.185 -1.942,-0.546 -0.157,0.913 -0.803,1.608 -0.069,2.363 0.8,0.823 1.401,1.175 0.959,2.525 -0.421,1.287 -1.597,1.58 -0.467,2.582 0.968,0.857 1.818,1.883 2.906,2.6 1.087,0.716 6.747,5.475 3.522,6.364 1.257,0.301 0.938,1.737 1.975,1.5 1.49,-0.34 2.325,0.59 3.519,1.252 2.194,1.215 3.596,3.976 6.632,4.208 1.44,0.11 4.093,4.711 5.364,5.813 1.923,1.667 0.744,3.39 0.261,5.683 -0.231,1.096 -0.173,4.207 1.482,4.323 0.581,0.042 1.553,-0.077 2.008,0.492 0.587,0.73 0.585,2.202 0.451,3.094 -0.297,1.982 0.757,2.563 3.015,4.159 1.139,0.805 0.881,3.303 2.495,3.686 -0.834,0.062 -5.807,-0.634 -5.918,-1.526 0.685,1.586 -2.159,0.314 -3.271,0.266 -1.608,-0.068 -3.687,0.304 -4.415,1.822 -1.578,3.29 -1.295,9.843 -6.651,9.242 l -13.517,-1.517 c -4.524,-0.635 -4.694,-2.968 -8.833,-5.52 -11.446,-8.259 -22.409,-18.156 -35.225,-23.663 -4.605,-1.979 -8.694,-1.811 -12.855,-2.711 2.608,-2.773 -0.533,-1.551 -1.315,-2.731 -0.194,-0.293 -0.356,-0.877 -0.188,-1.172 0.654,-0.736 0.007,-1.486 -0.402,-2.56 -0.909,-2.379 -1.769,-4.717 -2.538,-7.138"
   class="st6"
   id="iq" />



<path
   style="fill:#aaffaa;stroke-width:1;stroke-miterlimit:1.23191;stroke-dasharray:none"
   d="m 14.968865,187.54875 c -1.522,-2.63 0.735,-7.092 1.198,-9.82 0.317,-1.865 0.807,-3.614 1.825,-5.24 1.233,-1.972 3.488,-1.976 4.245,-4.441 0.388,-1.263 0.364,-3.209 1.644,-3.963 0.726,-0.426 0.297,-1.857 0.864,-2.673 0.906,-1.305 4.555,-5.761 3.54,-7.454 -0.682,0.431 -1.257,1.033 -1.658,1.725 1.595,-3.442 5.633,-5.975 8.286,-8.632 3.533,-3.539 2.851,-7.197 4.57,-11.538 1.407,-3.549 2.498,-7.467 6.016,-9.433 3.876,-2.166 5.984,-3.932 7.589,-8.121 1.02,-2.663 2.952,-6.442 2.282,-5.667 l 43.054,-0.341 -0.613,18.403 -31.946,0.361 -1.47,27.529 c -1.901,1.345 -4.602,1.493 -6.588,2.705 -2.988,1.822 -4.195,3.771 -3.958,7.234 0.138,2.012 1.712,12.497 -0.467,13.102 h -35.537 c -2.727,0 -3.163,4.37 -2.876,6.264"
   class="st7"
   id="eh" />


<path
   style="fill:#00ff00;stroke-width:1;stroke-miterlimit:1.23191;stroke-dasharray:none"
   d="m 514.47186,51.100753 c 0.806,-1.002 2.358,-3.086 3.791,-3.359 -2.188,-2.002 0.938,-3.262 2.775,-2.724 -1.614,-1.924 0.791,-2.158 1.347,-3.997 0.308,-1.019 -0.983,-3.08 -2.173,-3.296 -1.357,-0.247 1.227,-2.158 -0.876,-1.579 -3.505,0.964 -3.763,-1.228 -3.926,-3.008 -0.148,-1.617 0.919,-4.571 -0.562,-5.761 -1.186,-0.954 -0.265,-3.492 -0.309,-4.888 -0.033,-1.048 1.952,0.599 2.334,0.784 0.03,0.138 0.486,-0.93 1.329,-1.431 1.041,-0.617 0.338,-2.006 0.52,-2.971 0.906,0.214 1.869,-0.04 2.776,-0.09 -0.725,-1.459 -1.198,-1.837 -1.406,-3.592 -0.076,-0.639 -0.017,-2.443 0.896,-2.666 0.686,-0.169 1.376,-0.175 1.922,0.107 1.473,0.76 1.762,2.051 3.28,1.819 1.852,-0.284 3.08,-0.499 4.847,-1.248 1.812,-0.768 3.14,-1.835 5.174,-1.548 1.502,0.211 2.385,1.258 3.656,1.842 1.447,0.666 4.281,0.389 5.849,0.256 4.002,-0.338 6.86,-2.581 10.484,-4.0020003 3.663,-1.437 7.666,0.5790003 11.425,-0.893 1.919,-0.752 4.736,-3.628 5.016,0.871 0.065,1.0480003 -2.54,3.1720003 -3.29,3.9010003 -1.361,1.323 -2.879,1.229 -4.412,2.112 -3.29,1.895 0.157,5.998 0.415,8.263 0.153,1.339 -0.672,2.982 -0.771,4.366 -0.145,2.062 0,5.397 -0.011,7.438 -0.025,4.776 -20.521,13.91 -30.922,20.895 -2.832,1.902 -7.414,6.477 -11.098,3.948 -1.341,-0.919 -2.306,-1.626 -3.689,-2.558 -2.399,-1.618 -3.477,-0.407 -3.874,-0.463 -0.083,-0.295 0.867,-5.935 -0.517,-6.528"
   class="st6"
   id="sy" />

<g
   transform="matrix(4.1453484,0,0,4.0668378,-4833.9857,-1855.1624)"
   id="om"
   style="fill:#00ff00">
	<path
   style="fill:#00ff00;stroke-width:0.243552;stroke-miterlimit:3.76825;stroke-dasharray:none"
   d="m 1345.815,503.893 c 0.208,-0.184 0.28,-0.431 0.38,-0.679 0.057,-0.075 0.123,-0.138 0.2,-0.192 0.085,-0.1 -0.131,-0.41 -0.155,-0.514 -0.115,0.484 -0.621,0.844 -0.425,1.385"
   class="st6"
   id="path4692" />
	<path
   style="fill:#00ff00;stroke-width:0.243552;stroke-miterlimit:3.76825;stroke-dasharray:none"
   d="m 1338.582,488.065 c 0.064,-0.18 0.146,-0.35 0.245,-0.513 0.211,0.236 0.414,-0.085 0.313,-0.29 0.181,0.098 0.545,0.714 0.09,0.603 0.292,0.203 0.079,1.448 -0.244,1.39 -0.438,-0.078 0.155,-1.161 -0.404,-1.19"
   class="st6"
   id="path4696" />
	<path
   style="fill:#00ff00;stroke-width:0.243552;stroke-miterlimit:3.76825;stroke-dasharray:none"
   d="m 1330.545,506.761 c 3.264,-0.75 5.307,-1.536 6.786,-2.339 0.605,-1.153 -0.046,0.663 0.243,-0.621 0.236,-1.049 0.4,-2.096 0.638,-3.095 0.165,-0.692 0.551,-1.561 0.151,-2.22 -0.288,-0.474 -0.872,-0.879 -1.054,-1.402 -0.229,-0.658 1.014,-2.922 0.403,-3.281 0.274,-0.327 0.813,-0.044 1.051,-0.357 0.261,-0.343 -0.159,-0.229 -0.245,-0.402 -0.228,-0.461 -0.411,-1.472 -0.103,-1.94 0.143,-0.218 0.435,0.117 0.39,0.29 -0.142,0.539 0.402,-0.045 0.488,-0.127 0.266,-0.254 0.263,-0.211 0.429,0.147 0.275,0.595 0.636,1.157 1.074,1.644 0.694,0.77 1.664,1.047 2.652,1.246 0.462,0.093 0.855,0.275 1.326,0.327 0.629,0.071 0.974,0.837 1.334,1.265 0.291,0.345 0.488,0.762 0.778,1.092 0.302,0.344 0.461,0.358 0.859,0.517 0.934,0.373 -0.122,1.699 -0.308,2.247 -0.352,1.035 -1.46,1.575 -1.761,2.684 -0.071,0.262 -0.167,1.018 -0.582,0.894 -0.328,-0.098 -0.265,-0.725 -0.684,-0.464 -0.501,0.303 -0.474,1.393 -0.602,1.841 -0.169,0.586 0.022,1.04 0.177,1.607 0.126,0.464 0.206,0.814 -0.358,0.832 -0.905,0.027 -1.901,0.294 -2.124,1.27 -0.088,0.384 -0.157,0.805 -0.398,1.129 -0.3,0.403 -0.897,0.381 -1.371,0.417 -0.574,0.043 -0.804,0.136 -1.141,0.588 -0.326,0.438 -0.114,0.521 -0.142,1.021 -0.022,0.398 -0.428,0.686 -0.748,0.842 -0.154,0.075 -0.31,0.175 -0.468,0.051 -0.272,-0.215 -0.497,-0.156 -0.835,-0.156 -0.979,0 -1.837,0.95 -2.824,0.922 -0.64,-0.018 -0.352,-1.584 -1.039,-1.659 0.291,-0.304 -0.419,-1.372 -0.564,-1.64 -0.505,-0.934 -1.103,-2.172 -1.435,-3.181"
   class="st6"
   id="path4786" />
</g>


<g
   transform="matrix(4.1453484,0,0,4.0668378,-4710.0328,-1671.8517)"
   id="tn"
    data-name="تونس"
   style="fill:#00ff00">
	<path
     data-name="تونس"
   style="fill:#00ff00;stroke-width:0.243552;stroke-miterlimit:3.76825;stroke-dasharray:none"
   d="m 1197.134,421.561 c 0.053,-0.263 0.3,-0.363 0.49,-0.508 0.297,-0.226 0.322,-0.429 0.651,-0.679 0.263,-0.199 0.461,-0.572 0.562,-0.903 0.204,-0.664 0.147,-1.18 0.18,-1.816 0.021,-0.401 -0.232,-0.749 -0.178,-1.151 0.061,-0.457 0.568,-1.325 -0.164,-1.483 0.263,-0.304 0.692,-0.459 0.895,-0.819 0.075,-0.133 0.027,-0.361 0.21,-0.413 0.201,-0.057 0.326,-10e-4 0.485,-0.169 0.347,-0.367 0.708,-0.53 1.195,-0.669 0.226,-0.065 0.536,-0.234 0.777,-0.138 0.286,0.114 0,0.253 0.032,0.468 0.238,0 0.294,-0.118 0.155,-0.313 0.436,0.095 0.561,0.029 0.738,0.424 0.078,0.174 -0.164,0.191 0.071,0.356 0.18,0.127 0.209,0.347 0.041,0.492 0.014,-0.014 0.201,0.206 0.391,0.127 0.259,-0.107 0.478,-0.318 0.69,-0.497 0.082,-0.069 0.368,-0.377 0.502,-0.316 0.32,0.146 0.277,0.461 0.132,0.723 -0.278,0.503 -1.228,0.986 -1.26,1.558 -0.024,0.43 0.23,0.947 0.619,1.157 0.588,0.317 0.568,0.331 0.708,1.005 0.176,0.849 -0.417,1.731 -1.069,2.246 -0.648,0.512 -1.64,0.8 -0.997,1.794 0.141,0.219 0.33,0.424 0.571,0.534 0.268,0.122 0.378,-0.046 0.625,-0.011 0.081,0.011 0.133,0.409 0.182,0.493 0.121,0.205 0.461,-0.399 0.646,-0.332 0.253,0.092 0.082,0.298 0.158,0.469 0.106,0.238 0.47,0.453 0.09,0.491 0.2,0.214 0.636,-0.021 0.823,0.224 0.156,0.206 -0.102,1.005 -0.046,1.305 0.084,0.45 0.413,0.642 -0.08,0.937 -0.488,0.292 -1.486,0.616 -1.776,1.018 -0.166,0.132 -0.108,0.513 -0.339,0.607 -0.493,0.2 -0.961,0.362 -0.766,1.113 0.156,0.6 0.387,1.072 0.039,1.661 -0.405,0.687 -0.762,0.949 -1.473,1.262 -0.17,-1.12 -0.491,-2.199 -0.712,-3.308 -0.228,-1.148 -0.344,-1.81 -1.312,-2.348 -0.453,-0.251 -0.656,-0.555 -0.769,-1.058 -0.1,-0.442 -0.3,-0.755 -0.701,-0.991 -0.201,-0.118 -0.394,-0.214 -0.527,-0.425 -0.136,-0.216 -0.089,-0.509 -0.226,-0.727 -0.287,-0.455 -0.443,-0.937 -0.263,-1.39"
   class="st6"
   id="path5410" />
	<path
   style="fill:#00ff00;stroke-width:0.243552;stroke-miterlimit:3.76825;stroke-dasharray:none"
   d="m 1204.655,422.677 c -0.037,-0.297 -0.242,-0.056 -0.31,-0.201 -0.167,-0.355 0,-0.469 0.296,-0.465 0.657,0.009 0.246,0.401 0.014,0.666"
   class="st6"
   id="path5412" />
</g>
<path
   style="fill:#00ff00;stroke-width:1;stroke-miterlimit:1.23191;stroke-dasharray:none"
   d="m 414.99486,86.778753 c -1.831,-2.876 1.941,-5.889 1.477,-8.839 -0.498,-3.166 -3.439,-5.377 1.208,-9.136 0.098,2.307 2.839,1.482 4.261,1.067 2.597,-0.758 4.726,0.087 7.307,0.342 2.824,0.277 5.533,0.894 8.267,1.609 1.155,0.303 1.339,1.536 2.513,1.891 1.042,0.315 1.835,0.188 2.869,0.081 0.694,-0.073 1.015,0.991 1.798,1.15 0.857,0.174 1.733,0.178 2.597,0.262 2.78,0.27 4.636,1.981 7.244,2.408 2.522,0.414 4.933,-1.252 6.741,-2.765 0.938,-0.784 1.812,-1.637 2.672,-2.503 0.736,0.564 1.292,1.144 2.223,0.999 -0.532,-0.262 -0.416,-0.412 -1.118,-0.363 0.911,-0.474 1.821,-1.335 2.043,-2.36 1.574,0.923 3.055,-0.735 4.627,-0.724 -1.056,0.477 -2.07,1.069 -2.878,1.905 0.279,-0.161 6.656,-2.053 3.611,-2.27 2.253,-0.731 3.716,1.799 5.88,1.498 1.033,-0.144 2.008,-1.146 3.104,-0.77 1.019,0.348 1.5,1.797 2.403,2.359 -0.915,-0.628 -1.852,-2.007 -3.059,-2.087 0.357,0.941 -0.964,2.72 0.596,3.085 1.696,0.397 0.902,0.809 2,1.816 0,-0.371 3.027,-1.624 0.835,-2.633 2.331,0.532 3.106,2.643 5.841,2.408 0.887,-0.076 3.505,-1.682 3.04,0.224 1.695,-1.057 3.597,-0.44 5.419,-0.978 1.604,-0.473 3.209,-1.089 4.496,-2.185 l 7.814,20.236 c -1.975,2.465 -1.534,7.023 -2.791,9.943997 -0.735,1.707 -0.704,2.771 -0.685,4.576 0.017,1.543 -1.983,3.036 -1.491,4.54 -0.955,-0.866 -2.232,-1.257 -3.286,-1.981 -1.338,-0.919 -2.274,-2.258 -3.19,-3.553 -1.161,-1.642 -4.555,-2.713 -4.063,-5.178 0.496,-2.483997 -1.946,-4.205997 -3.194,-5.955997 -1.726,-2.417 -2.957,-5.233 -3.656,-8.115 -1.159,1.222 -2.393,3.887 -1.184,5.282 2.068,2.389 1.853,5.322 3.587,7.791 1.501,2.137997 3.023,4.755997 4.899,6.580997 0.83,0.807 1.777,1.502 2.534,2.381 0.396,0.46 2.027,3.098 0.06,1.659 1.591,1.218 0.275,2.769 1.284,3.773 1.355,1.347 2.074,2.774 2.784,4.471 0.348,0.835 0.923,1.55 1.418,2.3 0.378,0.574 -0.373,1.305 -0.406,1.866 -0.046,0.75 1.203,1.864 1.544,2.51 0.783,1.48 1.636,2.925 2.427,4.403 2.595,4.854 5.214,9.623 7.67,14.552 0.961,1.928 2.374,3.309 3.581,5.041 1.123,1.613 3.092,2.112 4.133,3.752 -0.984,0.052 -1.978,-0.116 -2.865,-0.545 -0.649,2.634 -0.336,6.656 1.035,8.208 1.305,1.478 -1.707,4.447 -3.543,4.534 -0.91,0.043 -1.256,-0.607 -2.173,0.397 -0.722,0.791 -1.103,2.146 -1.432,3.16 -0.378,1.171 -0.94,2.207 -2.258,2.508 -1.067,0.243 -2.986,0.029 -3.553,1.23 -1.036,2.198 -0.404,4.762 -3.562,4.516 -3.679,-0.287 -5.55,-3.213 -7.488,-3.133 -6.386,0.262 -10.051,0.834 -15.057,0.005 0.144,-0.493 0.725,-1.536 0.366,-2.043 -0.904,-1.282 -1.596,1.043 -1.896,1.463 -1.199,1.682 -7.191,0.671 -9.111,0.671 l -51.523,-0.109 -1.837,-68.321 c -0.193,-3.194 -0.113,-6.543997 -0.563,-9.707997 -0.385,-2.721 -1.097,-6.746 -2.346,-9.199"
   class="st6"
   id="eg" />

<g
   transform="matrix(4.1453484,0,0,4.0668378,-4833.9857,-1855.1624)"
   id="sa"
   style="fill:#00ff00">
	<path
   style="fill:#00ff00;stroke-width:0.243552;stroke-miterlimit:3.76825;stroke-dasharray:none"
   d="m 1307.913,513.558 c -0.013,-0.251 -0.117,-0.486 -0.335,-0.625 0,0.082 -0.013,0.164 -0.025,0.246 -0.291,0.011 -0.395,-0.296 -0.645,-0.38 0.242,0.402 0.865,0.394 1.005,0.759"
   class="st6"
   id="path3234" />
	<path
   style="fill:#00ff00;stroke-width:0.243552;stroke-miterlimit:3.76825;stroke-dasharray:none"
   d="m 1309.41,513.971 c 0.03,-0.282 -0.142,-0.949 -0.395,-1.11 -0.129,-0.082 -0.754,-1.395 -0.718,-0.761 -0.058,-1.134 -0.844,-1.426 -1.47,-2.194 -0.237,-0.291 -0.571,-0.711 -0.682,-1.066 -0.144,-0.459 -0.402,-0.59 -0.637,-0.963 -0.138,-0.219 -0.021,-0.41 -0.179,-0.635 -0.113,-0.16 -0.302,-0.668 -0.377,-0.873 -0.07,-0.192 -0.113,-0.395 -0.202,-0.579 -0.083,-0.17 -0.255,-0.193 -0.339,-0.343 -0.079,-0.143 0,-0.339 -0.111,-0.464 -0.111,-0.127 -0.293,-0.145 -0.414,-0.257 -0.303,-0.282 -0.654,-0.567 -0.921,-0.881 -0.325,-0.381 -0.705,-0.222 -1.071,-0.491 -0.607,-0.448 -1.011,-1.281 -1.393,-1.918 -0.222,-0.371 -0.158,-0.583 -0.177,-0.975 -0.021,-0.424 -0.328,-0.775 -0.359,-1.204 -0.042,-0.563 0.191,-1.122 0.079,-1.683 -0.051,-0.255 -0.191,-0.472 -0.328,-0.687 -0.072,-0.113 -0.508,-0.676 -0.016,-0.291 -0.108,-0.283 -0.354,-0.286 -0.418,-0.596 -0.057,-0.277 -0.193,-0.58 -0.301,-0.841 -0.3,-0.724 -0.884,-1.217 -1.432,-1.738 -0.4,-0.379 -0.796,-0.439 -1.283,-0.573 -0.208,-0.057 -0.307,-0.452 -0.368,-0.621 -0.131,-0.362 -0.384,-0.61 -0.61,-0.911 0.784,-0.286 -0.308,-1.573 -0.564,-1.885 -0.173,-0.209 -0.657,-0.591 -0.637,-0.867 0.036,-0.476 -0.577,-0.751 -0.783,-1.179 -0.625,-1.299 -1.612,-2.378 -2.304,-3.653 -0.211,-0.388 -0.447,-0.987 -0.912,-1.118 -0.211,-0.06 -1.043,-0.198 -1.059,0.193 -0.278,-0.254 0.172,-0.922 0.25,-1.189 0.164,-0.56 0.033,-1.142 0.124,-1.707 0.116,-0.716 0,-0.27 0.105,-0.697 0.534,0.159 2.004,0.553 2.537,0.437 1.059,-0.231 1.042,-1.77 2.037,-1.927 0.373,-0.059 1.288,0.035 1.249,-0.468 -0.091,-1.147 0.408,-0.803 1.102,-1.037 -0.906,-0.868 -1.768,-1.773 -2.597,-2.714 1.61,-0.336 2.679,-0.699 4.576,-1.713 0.804,0.154 2.238,0.242 3.119,0.65 2.961,1.371 5.4,3.467 7.971,5.423 0.544,0.414 1.074,0.826 1.582,1.283 0.579,0.52 0.981,0.494 1.744,0.568 0.879,0.085 1.806,0.209 2.685,0.29 0.323,0.03 0.482,-0.135 0.832,-0.059 0.474,0.102 0.965,0.16 1.447,0.203 0.511,0.046 0.551,0.64 0.714,1.016 0.242,0.559 1.055,0.206 1.517,0.246 0.478,0.042 0.54,0.301 0.696,0.692 0.169,0.423 1.009,0.962 0.879,1.437 -0.043,-0.075 -0.096,-0.142 -0.158,-0.201 -0.143,0.34 0.2,0.301 0.158,0.602 0.01,0.005 1.436,0.137 0.89,0.557 0.21,0.066 0.654,1.139 0.868,0.535 -0.143,0.538 1.149,1.143 1.448,1.47 -0.159,-0.048 -0.278,-0.144 -0.357,-0.29 0.01,0.593 0.367,0.602 0.495,1.078 0.075,0.279 0.045,0.868 -0.361,0.504 0.037,0.317 -0.065,0.379 0.222,0.438 0.044,0.009 0.421,0.826 0.447,0.921 -0.084,-0.072 -0.165,-0.147 -0.245,-0.223 0.247,0.362 0.688,0.566 0.884,0.967 0.198,0.406 0.258,0.778 0.496,1.172 0.183,0.303 0.447,0.823 0.826,0.916 0.173,0.042 0.802,-0.122 0.712,0.22 0.066,-0.174 0.217,-0.237 0.379,-0.134 -0.212,0.259 -0.403,0.964 0.312,0.781 -0.047,0.012 0.366,0.817 0.406,0.874 0.825,0.936 1.937,2.582 2.374,2.759 2.717,0.304 3.973,0.451 5.452,0.78 0.193,-0.046 0.362,-0.162 0.423,-0.287 0.33,0.763 1.079,1.162 1.205,1.657 0.114,0.447 0.082,0.744 -0.035,1.204 -0.393,1.54 -0.609,4.315 -1.178,4.621 -3.874,2.087 -8.722,2.817 -13.325,3.58 -0.597,0.211 -1.172,0.481 -1.717,0.797 -0.82,0.474 -1.616,1.899 -1.882,2.749 -0.123,0.393 -0.585,0.823 -1.018,0.825 -0.452,0.002 -0.536,-0.733 -0.904,-0.857 -0.419,-0.141 -0.728,0.073 -1.089,0.029 -0.56,-0.069 -1.308,0.019 -1.811,-0.239 -0.604,-0.311 -1.05,-0.168 -1.719,-0.167 -0.586,0.001 -1.205,0.36 -1.789,0.353 -0.725,-0.009 -0.831,-0.561 -1.208,-0.462 -0.505,0.133 -0.64,0.797 -0.668,1.216 -0.028,0.414 0.49,0.655 0.051,0.954 -0.084,0.057 -0.172,0.644 -0.803,0.852 0,-0.051 0.034,-0.066 0.031,-0.121"
   class="st6"
   id="path3380" />
	<path
   style="fill:#00ff00;stroke-width:0.243552;stroke-miterlimit:3.76825;stroke-dasharray:none"
   d="m 1307.153,512.375 c 0.165,0.041 0.202,0.093 0.112,0.156 -0.038,-0.052 -0.075,-0.104 -0.112,-0.156"
   class="st6"
   id="path5480" />
	<path
   style="fill:#00ff00;stroke-width:0.243552;stroke-miterlimit:3.76825;stroke-dasharray:none"
   d="m 1307.265,512.531 c 0.068,0.096 0.082,0.2 0.043,0.312 -0.082,-0.023 -0.156,-0.06 -0.223,-0.111 0.06,-0.067 0.12,-0.134 0.18,-0.201"
   class="st6"
   id="path5482" />
	<path
   style="fill:#00ff00;stroke-width:0.243552;stroke-miterlimit:3.76825;stroke-dasharray:none"
   d="m 1323.158,484.739 c 0.11,-0.167 0.282,-0.122 0.403,0 -0.135,0.026 -0.269,0.026 -0.403,0"
   class="st6"
   id="path5488" />
</g>















<path
   style="fill:#00ff00;stroke-width:1;stroke-miterlimit:1.23191;stroke-dasharray:none"
   d="m 55.581865,112.28975 c 0.445,-0.48 1.888,-2.727 2.396,-2.909 1.819,-0.649 3.808,-0.733 5.688,-1.139 3.489,-0.754 7.028,-1.836 9.661,-4.312 2.582,-2.428 5.269,-4.335997 7.972,-6.586997 2.59,-2.155 4.568,-5.03 6.641,-7.646 1.406,-1.775 4.636,-6.887 1.911,-8.824 -1.055,-0.749 -1.797,-0.774 -1.122,-2.162 0.67,-1.378 0.599,-2.756 0.675,-4.259 0.211,-4.185 1.752,-6.052 4.362,-9.17 1.492,-1.783 1.082,-3.597 1.709,-5.648 0.455,-1.484 1.698,-2.634 2.829,-3.644 2.415995,-2.16 4.330995,-4.819 7.362995,-6.163 3.3,-1.464 6.809,-2.608 9.963,-4.369 6.24,-3.486 9.242,-11.978 11.606,-18.229 0.229,-0.604 1.058,-3.686 2.009,-3.591 1.167,0.117 2.344,-0.347 3.338,-0.87 1.256,-0.661 1.496,0.975 1.862,1.855 0.706,1.7 1.646,2.855 3.173,3.919 3.189,2.222 5.834,1.6 9.48,1.171 3.023,-0.354 6.867,1.449 8.706,-2.035 -0.027,1.135 0.289,1.417 0.45,2.278 0.172,0.923 1.882,1.389 0.386,-0.1 0.808,1.099 2.254,1.661 3.552,1.026 1.323,-0.647 2.11,0.686 2.925,1.425 0.874,0.793 2.434,1.242 2.956,2.36 0.596,1.279 -0.695,2.45 1.118,3.177 -0.982,0.755 -0.663,2.142 -0.477,3.159 0.296,1.609 -0.251,3.024 -0.064,4.576 0.15,1.247 0.974,2.043 0.658,3.382 -0.475,2.014 -0.242,2.729 0.736,4.5 0.497,0.902 0.046,1.705 0.544,2.531 0.739,1.228 1.897,1.716 2.988,2.562 2.011,1.56 -4.006,4.15 -0.788,5.346 -3.322,0.837 -14.97,-3.083 -16.68,1.343 -0.892,2.311 -3.214,3.191 -5.73,2.985 -1.902,-0.158 -4.243,2.509 -1.65,3.208 -2.195,1.97 1.834,3.428 0.873,4.363 -1.098,1.068 -3.022,0.682 -4.208,1.531 -1.242,0.89 -2.604,2.224 -4.074,2.722 -1.112,0.376 -2.367,0.343 -3.411,0.915 -2.023,1.108 -2.838,3.432 -4.321,5.059 -1.699,1.865 -4.84,2.594 -7.31,2.689 -1.856,0.071 -3.853,-0.692 -4.602,1.478 -0.799,2.315 -3.119,0.581 -4.976,0.716 -1.31,0.095 -2.072,0.736 -2.915,1.629 -0.856,0.908 -1.866,0.716 -2.933,1.135 -1.231,0.483 -1.991,1.678 -2.974,2.483 -1.045,0.855 -2.339,1.387 -3.407,2.236 -2.083,1.655997 -3.909995,1.895997 -3.700995,4.760997 0.207,2.85 -0.1,6.008 -0.425,8.841 -0.14,1.2 -38.81,0.296 -42.762,0.296"
   class="st6"
   id="ma" />


<path
   style="fill:#b9b9b9;fill-opacity:1;stroke-width:1;stroke-miterlimit:1.23191;stroke-dasharray:none"
   d="m 503.54786,73.615753 c 0.447,-0.601 2.882,-3.483 1.761,-4.176 1.911,-3.123 2.365,-6.751 3.058,-10.259 0.213,-1.073 0.244,-2.837 1.128,-3.61 0.663,-0.579 -0.346,-1.832 0.26,-2.473 0.556,-0.588 1.907,0.006 2.551,0.084 1.523,0.184 1.321,-1.359 1.794,-2.263 2.218,0.112 0.56,8.421 0.748,10.849 -0.267,-0.969 -1.841,-2.249 -3.032,-2.561 -1.423,-0.373 -1.866,1.387 -2.145,2.468 -0.313,1.211 -0.99,5.506 0.796,5.28 3.735,-0.474 -1.602,2.012 -0.875,4.634 0.406,1.466 4.258,-1.343 5.06,-1.352 -0.186,1.326 -0.125,2.158 -0.063,4.27 0.055,1.885 -0.722,4.334 -1.295,5.985 -1.115,3.216 -0.295,8.742 -2.522,11.914 l -7.224,-18.79"
   class="st6"
   id="il" />



<g
   transform="matrix(4.1453484,0,0,4.0668378,-4710.0328,-1671.8517)"
   id="lb"
   style="fill:#00ff00">
	<path
   style="fill:#00ff00;stroke-width:0.243552;stroke-miterlimit:3.76825;stroke-dasharray:none"
   d="m 1259.191,424.15 c 0.493,-0.575 0.477,-1.612 0.895,-2.258 0.207,-0.32 -0.036,-0.752 0.202,-1.061 0.186,-0.24 0.693,-0.505 0.53,-0.878 0.191,0.04 0.481,0.122 0.664,0.013 0.421,-0.251 0.124,0.227 0.186,0.371 -0.01,-0.019 0.277,0.087 0.307,0.116 0.212,0.204 0.093,0.159 0.253,0.454 0.342,0.627 -0.751,0.727 -0.316,1.256 -0.443,-0.132 -1.197,0.177 -0.669,0.67 -0.197,0.045 -0.864,0.693 -0.893,0.893 -0.048,-0.026 -0.086,-0.063 -0.111,-0.112 -0.074,0.144 -0.078,0.315 -0.157,0.462 -0.166,0.312 -0.648,-0.121 -0.891,0.074"
   class="st6"
   id="lb-" />
</g>



<g
   transform="matrix(4.1453484,0,0,4.0668378,-4710.0328,-1671.8517)"
   id="kw"
   style="fill:#00ff00">
	<g
   transform="translate(-29.9017,-45.0745)"
   id="kw-"
   style="fill:#00ff00">
		<path
   style="fill:#00ff00;stroke-width:0.243552;stroke-miterlimit:3.76825;stroke-dasharray:none"
   d="m 1319.474,477.573 c 0.044,0.097 -0.528,1.041 0.18,0.971 0.612,-0.06 -0.011,-0.763 -0.18,-0.971"
   class="st6"
   id="path5440" />
		<path
   style="fill:#00ff00;stroke-width:0.243552;stroke-miterlimit:3.76825;stroke-dasharray:none"
   d="m 1315.97,479.917 c 0.993,-0.362 0.532,-2.375 1.568,-2.566 0.401,-0.074 0.972,-0.111 1.498,0.323 0.136,0.112 0.486,0.84 0.348,1.016 -0.295,-0.414 -0.715,0.288 -0.871,0.491 0.453,-0.06 0.958,0.116 1.07,0.606 0.136,0.596 0.592,1.126 0.792,1.728 -0.384,-0.22 -1.341,0.151 -1.717,-0.113 -0.294,-0.206 -0.33,-0.653 -0.446,-0.961 -0.156,-0.414 -1.641,-0.303 -2.242,-0.524"
   class="st6"
   id="path5486" />
	</g>
</g>

<g
   transform="matrix(4.1453484,0,0,4.0668378,-4710.0328,-1671.8517)"
   id="qa"
   style="fill:#00ff00">
	<path
   style="fill:#00ff00;stroke-width:0.243552;stroke-miterlimit:3.76825;stroke-dasharray:none"
   d="m 1296.604,445.089 c -0.014,-0.121 -0.189,-0.864 0.155,-0.513 -0.02,-0.12 -0.098,-0.788 0.115,-0.223 0.017,-0.563 0.218,-2.049 0.993,-1.23 0.194,0.206 0.568,0.35 0.57,0.672 0,0.225 -0.11,0.368 -0.161,0.573 -0.045,0.178 0.064,0.409 0.082,0.587 0.017,0.178 0.206,0.181 0.255,0.335 0.082,0.251 0.021,0.478 -0.08,0.71 -0.176,0.401 -0.118,0.694 -0.557,0.825 -0.365,0.11 -0.694,0.4 -0.939,-0.136 -0.224,-0.489 -0.317,-1.078 -0.433,-1.6"
   class="st6"
   id="qa-" />
</g>

<g
   transform="matrix(4.1453484,0,0,4.0668378,-4710.0328,-1671.8517)"
   id="ps"
   style="fill:#b9b9b9;fill-opacity:1">
	<g
   transform="translate(-29.9017,-45.0745)"
   id="ps-"
   style="fill:#b9b9b9;fill-opacity:1">
		<path
   style="fill:#b9b9b9;fill-opacity:1;stroke-width:0.243552;stroke-miterlimit:3.76825;stroke-dasharray:none"
   d="m 1287.462,473.957 c 0.215,-0.212 0.415,-0.446 0.558,-0.714 0.267,0.169 -0.3,0.889 -0.425,1.019 -0.052,-0.093 -0.097,-0.204 -0.133,-0.305"
   class="st6"
   id="path5472" />
		<path
   style="fill:#00ff00;fill-opacity:1;stroke-width:0.243552;stroke-miterlimit:3.76825;stroke-dasharray:none"
   d="m 1288.981,471.636 c 0.114,-0.266 0.152,-1.012 0.607,-0.923 0.158,0.031 0.619,0.302 0.676,0.455 0.168,0.445 0.125,1.07 0.11,1.553 -0.01,0.332 -0.015,0.691 -0.19,0.773 l -0.649,0.304 c -0.308,0.144 -0.616,0.155 -0.484,-0.329 0.035,-0.128 0.491,-0.802 0.556,-0.78 -0.135,-0.046 -0.485,0.088 -0.567,-0.148 -0.144,-0.417 0,-0.73 -0.059,-0.905"
   class="st6"
   id="path5474" />
	</g>
</g>

<g
   transform="matrix(4.1453484,0,0,4.0668378,-4710.0328,-1671.8517)"
   id="bh"
   style="fill:#ff6600">
	<path
   style="fill:#ff6600;stroke-width:0.243552;stroke-miterlimit:3.76825;stroke-dasharray:none"
   d="m 1295.711,442.701 c 0.071,0.148 0.101,0.304 0.09,0.469 -0.042,0.214 0.218,0.368 0.267,0.558 0.091,-0.236 0.102,-1.517 -0.357,-1.027"
   class="st6"
   id="bh-" />
</g>




<g
   transform="matrix(4.1453484,0,0,4.0668378,-4710.0328,-1671.8517)"
   id="gi">
	<path
   style="stroke-width:0.243552;stroke-miterlimit:3.76825;stroke-dasharray:none"
   d="m 1168.656,416.033 c -0.06,0.269 -0.134,0.275 -0.219,0.018 0.073,-0.006 0.146,-0.012 0.219,-0.018"
   class="st2"
   id="gi-" />
	<path
   d="m 1168.396,418.043 c 2.394,0 2.394,-3.729 0,-3.729 -2.396,0 -2.396,3.729 0,3.729"
   class="st5"
   id="gi." />
</g>


</svg>
